<?xml version="1.0" standalone="no"?><!DOCTYPE svg PUBLIC "-//W3C//DTD SVG 1.1//EN" "http://www.w3.org/Graphics/SVG/1.1/DTD/svg11.dtd"><svg t="1590633888719" class="icon" viewBox="0 0 1024 1024" version="1.1" xmlns="http://www.w3.org/2000/svg" p-id="3796" width="200" height="200" xmlns:xlink="http://www.w3.org/1999/xlink"><defs><style type="text/css"></style></defs><path d="M930.7965 540.0883 930.7965 540.0883 930.7965 540.0883h-56.01792l0 0c-15.4819 0-28.0105-12.5553-28.0105-28.0095 0-15.4819 12.5276-28.0084 28.0105-28.0084l0 0h56.01792l0 0 0 0c15.4808 0 28.0084 12.5266 28.0084 28.0084C958.805 527.5331 946.2774 540.0883 930.7965 540.0883zM818.7597 203.9808v-28.009472000000002l56.0189-56.0169 28.0095 28.0095v28.008448l-56.0189 56.0189L818.7597 203.9808zM692.7206 619.82c-4.1585 2.4617-8.7808 4.2947-14.0052 4.2947-15.4808 0-28.0095-12.5553-28.0095-28.0095 0-15.4808 12.5276-28.0095 28.0095-28.0095v-1.422336c31.9478-6.4829 56.0179-34.7382 56.0179-68.6008 0-33.8893-24.0701-62.1179-56.0179-68.6008v-1.422336c-15.4808 0-28.0095-12.5553-28.0095-28.0084 0-15.4819 12.5276-28.0095 28.0095-28.0095 5.2244 0 9.8468 1.8053 14.0052 4.2947 55.9616 12.801 98.0306 61.8988 98.0306 121.7464C790.7512 557.9213 748.6822 607.019 692.7206 619.82zM566.6785 904.2033c0 0-26.5308 1.0404-42.4776-10.1192L258.5815 708.1421l0 0H118.53619200000001c-30.935 0-56.0179-25.0819-56.0179-56.0179V372.03456000000006c0-30.935 25.0819-56.0179 56.0179-56.0179h140.044288l265.6195-185.941c9.8478-6.8925 20.1052-10.1202 32.1116-10.1202 0 0 66.3849-4.4308 66.3849 56.0169v672.2160640000001C622.6975 879.1224 597.6156 904.2033 566.6785 904.2033zM566.6785 231.9892c0-58.3424-28.0084-28.0095-28.0084-28.0095L286.591 372.0346H146.545664l0 0 0 0 0 0 0 0c-15.4819 0-28.0095 12.5276-28.0095 28.0095v224.07168c0 15.4542 12.5276 28.0095 28.0095 28.0095l0 0 0 0h140.044288l252.0801 168.0538c0 0 28.0084 24.5084 28.0084 0C566.6785 795.6695 566.6785 231.9892 566.6785 231.9892zM902.7871 848.1874v28.008448l-28.0095 28.0084-56.0189-56.0159v-28.009472000000002l28.0095-28.0095L902.7871 848.1874z" p-id="3797" fill="#efb336"></path></svg>